<svg width="36" height="36" viewBox="0 0 36 36" fill="none" xmlns="http://www.w3.org/2000/svg">
<path d="M7.50028 18.0003C8.75374 17.0583 10.312 16.5 12.0006 16.5C16.142 16.5 19.4993 19.8579 19.4993 24C19.4993 25.6884 18.9415 27.2465 18.0001 28.5M7.50028 18.0003C5.67958 19.3687 4.50195 21.5468 4.50195 24C4.50195 24.7748 4.61942 25.5221 4.83751 26.2252C5.24661 27.5441 4.95127 29.0142 4.69004 30.4002C4.59139 30.9237 5.06377 31.3497 5.57751 31.209C6.84886 30.861 8.11458 30.564 9.41291 31.0414C10.2195 31.3381 11.0911 31.5 12.0006 31.5C14.4539 31.5 16.632 30.3217 18.0001 28.5M7.50028 18.0003C7.50028 10.9723 11.8131 4.5 19.4993 4.5C26.1261 4.5 31.4983 9.87258 31.4983 16.5C31.4983 17.921 31.2513 19.2844 30.7979 20.5494C30.0849 22.5389 30.8532 25.2025 31.3039 27.4015C31.4109 27.9233 30.9373 28.3494 30.4288 28.1907C28.4605 27.5763 26.1503 26.712 24.301 27.4916C22.2996 28.3353 20.1967 28.5 18.0001 28.5" stroke="#35B8FF" stroke-width="1.5" stroke-linecap="round" stroke-linejoin="round"/>
</svg>
