<svg xmlns="http://www.w3.org/2000/svg" width="21" height="21" viewBox="0 0 21 21" fill="none">
  <path d="M20.625 10.7363C20.625 10.0283 20.5662 9.32301 20.4434 8.625H10.5V12.6233H16.1944C15.959 13.9132 15.1992 15.0543 14.0892 15.7775V18.375H17.4888C19.479 16.5711 20.625 13.898 20.625 10.7363Z" fill="#4285F4"/>
  <path d="M10.3816 21C13.1774 21 15.533 20.0555 17.25 18.4252L13.9089 15.7571C12.9787 16.4067 11.782 16.7767 10.3816 16.7767C7.67909 16.7767 5.3862 14.9007 4.56416 12.375H1.125V15.1231C2.88476 18.728 6.46481 21 10.3816 21Z" fill="#34A853"/>
  <path d="M4.5 12.308C4.06943 11.014 4.06943 9.60841 4.5 8.31194V5.625H1.09228C-0.364092 8.57516 -0.364092 12.0497 1.09228 15L4.5 12.308Z" fill="#FBBC04"/>
  <path d="M10.5586 4.22347C12.0652 4.20018 13.5179 4.77214 14.6093 5.82271L17.625 2.77959C15.7137 0.968379 13.1823 -0.027896 10.5586 0.000594638C6.56692 0.000594638 2.91593 2.275 1.125 5.877L4.6324 8.625C5.46768 6.09686 7.80442 4.22347 10.5586 4.22347Z" fill="#EA4335"/>
</svg>