<svg xmlns="http://www.w3.org/2000/svg" width="30" height="30" viewBox="0 0 30 30" fill="none">
  <path d="M3.75 3.75012C4.78866 4.13096 6.20973 4.4277 6.84935 5.40385C7.29552 6.08476 7.29552 6.98919 7.29552 8.79807V12.2001C7.29552 15.8771 7.37131 17.0906 8.40977 18.2328C9.44823 19.3751 11.1196 19.3751 14.4623 19.3751H20.8183C24.151 19.3751 24.8739 18.6232 25.514 15.3845C25.7932 13.9714 26.076 12.5763 26.2185 11.1682C26.4884 8.49956 25.0032 7.65012 22.6365 7.65012H7.29552" stroke="white" stroke-width="1.5" stroke-linecap="round" stroke-linejoin="round"/>
  <path d="M20.625 26.2501C21.6605 26.2501 22.5 25.4107 22.5 24.3751C22.5 23.3396 21.6605 22.5001 20.625 22.5001C19.5895 22.5001 18.75 23.3396 18.75 24.3751C18.75 25.4107 19.5895 26.2501 20.625 26.2501Z" stroke="white" stroke-width="1.5" stroke-linecap="round" stroke-linejoin="round"/>
  <path d="M10.625 26.2501C11.6605 26.2501 12.5 25.4107 12.5 24.3751C12.5 23.3396 11.6605 22.5001 10.625 22.5001C9.58947 22.5001 8.75 23.3396 8.75 24.3751C8.75 25.4107 9.58947 26.2501 10.625 26.2501Z" stroke="white" stroke-width="1.5" stroke-linecap="round" stroke-linejoin="round"/>
</svg>