<svg xmlns="http://www.w3.org/2000/svg" width="30" height="30" viewBox="0 0 30 30" fill="none">
  <path d="M3.75 8.43762C3.75 6.22791 3.75 5.12306 4.43647 4.43659C5.12294 3.75012 6.22779 3.75012 8.4375 3.75012C10.6472 3.75012 11.7521 3.75012 12.4385 4.43659C13.125 5.12306 13.125 6.22791 13.125 8.43762C13.125 10.6473 13.125 11.7522 12.4385 12.4387C11.7521 13.1251 10.6472 13.1251 8.4375 13.1251C6.22779 13.1251 5.12294 13.1251 4.43647 12.4387C3.75 11.7522 3.75 10.6473 3.75 8.43762Z" stroke="white" stroke-width="1.5" stroke-linecap="round" stroke-linejoin="round"/>
  <path d="M3.75 21.5715C3.75 19.3617 3.75 18.2569 4.43647 17.5704C5.12294 16.884 6.22779 16.884 8.4375 16.884C10.6472 16.884 11.7521 16.884 12.4385 17.5704C13.125 18.2569 13.125 19.3617 13.125 21.5715C13.125 23.7812 13.125 24.886 12.4385 25.5725C11.7521 26.259 10.6472 26.259 8.4375 26.259C6.22779 26.259 5.12294 26.259 4.43647 25.5725C3.75 24.886 3.75 23.7812 3.75 21.5715Z" stroke="white" stroke-width="1.5" stroke-linecap="round" stroke-linejoin="round"/>
  <path d="M16.875 8.43762C16.875 6.22791 16.875 5.12306 17.5615 4.43659C18.2479 3.75012 19.3528 3.75012 21.5625 3.75012C23.7722 3.75012 24.8771 3.75012 25.5635 4.43659C26.25 5.12306 26.25 6.22791 26.25 8.43762C26.25 10.6473 26.25 11.7522 25.5635 12.4387C24.8771 13.1251 23.7722 13.1251 21.5625 13.1251C19.3528 13.1251 18.2479 13.1251 17.5615 12.4387C16.875 11.7522 16.875 10.6473 16.875 8.43762Z" stroke="white" stroke-width="1.5" stroke-linecap="round" stroke-linejoin="round"/>
  <path d="M16.875 21.5715C16.875 19.3617 16.875 18.2569 17.5615 17.5704C18.2479 16.884 19.3528 16.884 21.5625 16.884C23.7722 16.884 24.8771 16.884 25.5635 17.5704C26.25 18.2569 26.25 19.3617 26.25 21.5715C26.25 23.7812 26.25 24.886 25.5635 25.5725C24.8771 26.259 23.7722 26.259 21.5625 26.259C19.3528 26.259 18.2479 26.259 17.5615 25.5725C16.875 24.886 16.875 23.7812 16.875 21.5715Z" stroke="white" stroke-width="1.5" stroke-linecap="round" stroke-linejoin="round"/>
</svg>