<svg xmlns="http://www.w3.org/2000/svg" width="35" height="35" viewBox="0 0 35 35" fill="none">
  <g clip-path="url(#clip0_858_922)">
    <path d="M35 17.5001C35 7.83522 27.1649 0.00012207 17.5 0.00012207C7.8351 0.00012207 0 7.83522 0 17.5001C0 25.7069 5.6504 32.5935 13.2727 34.4849V22.8481H9.6642V17.5001H13.2727V15.1957C13.2727 9.23942 15.9684 6.47862 21.8162 6.47862C22.925 6.47862 24.8381 6.69632 25.6207 6.91332V11.7608C25.2077 11.7174 24.4902 11.6957 23.5991 11.6957C20.7298 11.6957 19.621 12.7828 19.621 15.6087V17.5001H25.3372L24.3551 22.8481H19.621V34.872C28.2863 33.8255 35.0007 26.4475 35.0007 17.5001H35Z" fill="white"/>
  </g>
  <defs>
    <clipPath id="clip0_858_922">
      <rect width="35" height="35" fill="white"/>
    </clipPath>
  </defs>
</svg>