<svg xmlns="http://www.w3.org/2000/svg" width="35" height="35" viewBox="0 0 35 35" fill="none">
  <g clip-path="url(#clip0_858_920)">
    <path d="M17.5 3.15149C22.1758 3.15149 22.7295 3.172 24.5684 3.25403C26.2773 3.32922 27.2002 3.61633 27.8154 3.85559C28.6289 4.17004 29.2168 4.55286 29.8252 5.16125C30.4404 5.77649 30.8164 6.35754 31.1309 7.17102C31.3701 7.78626 31.6572 8.71594 31.7324 10.4181C31.8145 12.2638 31.835 12.8175 31.835 17.4865C31.835 22.1622 31.8145 22.7159 31.7324 24.5548C31.6572 26.2638 31.3701 27.1866 31.1309 27.8019C30.8164 28.6154 30.4336 29.2032 29.8252 29.8116C29.21 30.4269 28.6289 30.8029 27.8154 31.1173C27.2002 31.3566 26.2705 31.6437 24.5684 31.7189C22.7227 31.8009 22.1689 31.8214 17.5 31.8214C12.8242 31.8214 12.2705 31.8009 10.4316 31.7189C8.72266 31.6437 7.79981 31.3566 7.18457 31.1173C6.37109 30.8029 5.7832 30.42 5.17481 29.8116C4.55957 29.1964 4.18359 28.6154 3.86914 27.8019C3.62988 27.1866 3.34277 26.257 3.26758 24.5548C3.18555 22.7091 3.16504 22.1554 3.16504 17.4865C3.16504 12.8107 3.18555 12.257 3.26758 10.4181C3.34277 8.70911 3.62988 7.78626 3.86914 7.17102C4.18359 6.35754 4.56641 5.76965 5.17481 5.16125C5.79004 4.54602 6.37109 4.17004 7.18457 3.85559C7.79981 3.61633 8.72949 3.32922 10.4316 3.25403C12.2705 3.172 12.8242 3.15149 17.5 3.15149ZM17.5 0.00012207C12.749 0.00012207 12.1543 0.0206299 10.2881 0.102661C8.42871 0.184692 7.15039 0.485474 6.04297 0.916138C4.8877 1.36731 3.91016 1.96204 2.93945 2.93958C1.96191 3.91028 1.36719 4.88782 0.916016 6.03626C0.485352 7.15051 0.18457 8.422 0.102539 10.2814C0.0205078 12.1544 0 12.7491 0 17.5001C0 22.2511 0.0205078 22.8458 0.102539 24.712C0.18457 26.5714 0.485352 27.8497 0.916016 28.9572C1.36719 30.1124 1.96191 31.09 2.93945 32.0607C3.91016 33.0314 4.8877 33.6329 6.03613 34.0773C7.15039 34.5079 8.42188 34.8087 10.2813 34.8907C12.1475 34.9728 12.7422 34.9933 17.4932 34.9933C22.2441 34.9933 22.8389 34.9728 24.7051 34.8907C26.5645 34.8087 27.8428 34.5079 28.9502 34.0773C30.0986 33.6329 31.0762 33.0314 32.0469 32.0607C33.0176 31.09 33.6191 30.1124 34.0635 28.964C34.4941 27.8497 34.7949 26.5782 34.877 24.7189C34.959 22.8527 34.9795 22.2579 34.9795 17.507C34.9795 12.756 34.959 12.1613 34.877 10.295C34.7949 8.43567 34.4941 7.15735 34.0635 6.04993C33.6328 4.88782 33.0381 3.91028 32.0606 2.93958C31.0898 1.96887 30.1123 1.36731 28.9639 0.922974C27.8496 0.49231 26.5781 0.191528 24.7188 0.109497C22.8457 0.0206299 22.251 0.00012207 17.5 0.00012207Z" fill="white"/>
    <path d="M17.5 8.51086C12.5371 8.51086 8.51074 12.5372 8.51074 17.5001C8.51074 22.463 12.5371 26.4894 17.5 26.4894C22.4629 26.4894 26.4893 22.463 26.4893 17.5001C26.4893 12.5372 22.4629 8.51086 17.5 8.51086ZM17.5 23.3312C14.2803 23.3312 11.6689 20.7198 11.6689 17.5001C11.6689 14.2804 14.2803 11.6691 17.5 11.6691C20.7197 11.6691 23.3311 14.2804 23.3311 17.5001C23.3311 20.7198 20.7197 23.3312 17.5 23.3312Z" fill="white"/>
    <path d="M28.9434 8.1554C28.9434 9.31751 28 10.254 26.8447 10.254C25.6826 10.254 24.7461 9.31067 24.7461 8.1554C24.7461 6.99329 25.6895 6.05676 26.8447 6.05676C28 6.05676 28.9434 7.00012 28.9434 8.1554Z" fill="white"/>
  </g>
  <defs>
    <clipPath id="clip0_858_920">
      <rect width="35" height="35" fill="white"/>
    </clipPath>
  </defs>
</svg>