<svg xmlns="http://www.w3.org/2000/svg" width="35" height="35" viewBox="0 0 35 35" fill="none">
  <g clip-path="url(#clip0_858_919)">
    <path fill-rule="evenodd" clip-rule="evenodd" d="M35 17.5001C35 27.1651 27.165 35.0001 17.5 35.0001C7.83502 35.0001 0 27.1651 0 17.5001C0 7.83514 7.83502 0.00012207 17.5 0.00012207C27.165 0.00012207 35 7.83514 35 17.5001ZM18.1271 12.9194C16.425 13.6274 13.0231 15.0927 7.92151 17.3154C7.09309 17.6448 6.65913 17.9671 6.61962 18.2822C6.55285 18.8148 7.21979 19.0245 8.12798 19.3101C8.25151 19.3489 8.37952 19.3892 8.51074 19.4318C9.40426 19.7223 10.6062 20.0621 11.231 20.0756C11.7978 20.0878 12.4304 19.8542 13.1289 19.3746C17.8954 16.157 20.356 14.5307 20.5105 14.4956C20.6194 14.4709 20.7705 14.4398 20.8728 14.5307C20.9751 14.6217 20.965 14.7939 20.9542 14.8401C20.8881 15.1218 18.2702 17.5557 16.9154 18.8152C16.493 19.2079 16.1934 19.4864 16.1322 19.55C15.995 19.6925 15.8552 19.8273 15.7208 19.9568C14.8907 20.7571 14.2682 21.3572 15.7553 22.3371C16.4699 22.808 17.0417 23.1975 17.6122 23.586C18.2353 24.0102 18.8567 24.4334 19.6607 24.9605C19.8655 25.0947 20.0612 25.2342 20.2517 25.3701C20.9768 25.887 21.6282 26.3514 22.4329 26.2773C22.9006 26.2343 23.3836 25.7946 23.6289 24.4831C24.2086 21.3839 25.3482 14.6687 25.6116 11.9015C25.6346 11.6591 25.6056 11.3488 25.5823 11.2126C25.559 11.0764 25.5103 10.8824 25.3332 10.7387C25.1236 10.5686 24.7999 10.5327 24.6551 10.5352C23.9969 10.5468 22.9871 10.898 18.1271 12.9194Z" fill="white"/>
  </g>
  <defs>
    <clipPath id="clip0_858_919">
      <rect width="35" height="35" fill="white"/>
    </clipPath>
  </defs>
</svg>