<svg xmlns="http://www.w3.org/2000/svg" width="33" height="35" viewBox="0 0 33 35" fill="none">
  <g clip-path="url(#clip0_858_913)">
    <path d="M29.275 3.41411C28.4103 2.61163 24.916 0.0602712 17.1327 0.0256089C17.1327 0.0256089 7.95413 -0.531089 3.47974 3.59688C0.989035 6.10254 0.11285 9.76887 0.0204275 14.3144C-0.0719949 18.8598 -0.191571 27.3784 7.9724 29.6881H7.98024L7.97502 33.2127C7.97502 33.2127 7.9228 34.6396 8.85694 34.9305C9.9869 35.2835 10.65 34.199 11.7288 33.0299C12.321 32.3881 13.1387 31.4454 13.7548 30.7249C19.3383 31.1975 23.6325 30.1172 24.1202 29.9576C25.2476 29.5899 31.6268 28.768 32.6643 20.25C33.7353 11.4705 32.1463 5.91715 29.275 3.41411ZM30.2211 19.6203C29.3455 26.7324 24.1714 27.1793 23.2174 27.4871C22.8117 27.6184 19.0401 28.5621 14.2973 28.2507C14.2973 28.2507 10.7634 32.5388 9.6595 33.6538C9.48719 33.8282 9.28459 33.8986 9.14935 33.8639C8.95929 33.8172 8.90707 33.5908 8.90916 33.2599C8.91229 32.7873 8.93945 27.403 8.93945 27.403C2.03335 25.4746 2.43594 18.2244 2.51426 14.4278C2.59259 10.6312 3.30168 7.52107 5.40808 5.42925C9.19269 1.9814 16.9891 2.49661 16.9891 2.49661C23.573 2.5255 26.7279 4.51963 27.4594 5.18767C29.8885 7.27948 31.126 12.285 30.2211 19.6182V19.6203Z" fill="white"/>
    <path d="M20.3367 14.1155C20.2511 12.3792 19.3742 11.4673 17.7061 11.3798" stroke="white" stroke-width="2" stroke-linecap="round" stroke-linejoin="round"/>
    <path d="M22.5949 14.877C22.6297 13.2594 22.1533 11.908 21.1658 10.8226C20.1737 9.73333 18.8004 9.13357 17.0381 9.00385" stroke="white" stroke-width="2" stroke-linecap="round" stroke-linejoin="round"/>
    <path d="M24.9066 15.7867C24.8854 12.9798 24.0515 10.7691 22.4049 9.15464C20.7584 7.54022 18.7107 6.72443 16.2617 6.70728" stroke="white" stroke-width="2" stroke-linecap="round" stroke-linejoin="round"/>
    <path d="M17.7927 20.0456C17.7927 20.0456 18.4115 20.0981 18.7446 19.6853L19.3942 18.8634C19.7075 18.4558 20.4636 18.1958 21.204 18.6107C21.7588 18.929 22.2975 19.275 22.818 19.6475C23.3093 20.0109 24.3155 20.8554 24.3187 20.8554C24.798 21.2624 24.9087 21.8601 24.5824 22.4903C24.5824 22.494 24.5797 22.5003 24.5797 22.5034C24.2203 23.1301 23.764 23.6953 23.2279 24.1777C23.2216 24.1809 23.2216 24.184 23.2159 24.1872C22.7501 24.5786 22.2925 24.8011 21.8431 24.8547C21.7769 24.8663 21.7097 24.8706 21.6426 24.8673C21.4444 24.8692 21.2472 24.8387 21.0588 24.777L21.0442 24.7554C20.3518 24.559 19.1957 24.0674 17.2705 22.9992C16.1565 22.3883 15.0958 21.6836 14.1 20.8927C13.6008 20.4965 13.1247 20.0718 12.674 19.6207L12.6259 19.5724L12.5779 19.524L12.5299 19.4752C12.5137 19.4594 12.498 19.4432 12.4818 19.4269C12.0333 18.9735 11.6111 18.4946 11.2171 17.9926C10.4309 16.9911 9.73024 15.9245 9.12276 14.8042C8.06068 12.8673 7.57194 11.7056 7.37665 11.0081L7.35524 10.9934C7.29403 10.8039 7.26387 10.6056 7.26595 10.4063C7.2623 10.3388 7.26633 10.2712 7.27796 10.2046C7.33401 9.75365 7.55558 9.29323 7.94267 8.82337C7.94581 8.81759 7.94894 8.81759 7.95207 8.81129C8.43157 8.27209 8.99351 7.81326 9.61672 7.45211C9.61985 7.45211 9.62612 7.44895 9.62977 7.44895C10.2564 7.12071 10.8506 7.23205 11.2547 7.71155C11.2579 7.7147 12.0959 8.72673 12.4557 9.22093C12.826 9.74493 13.1701 10.2873 13.4864 10.8459C13.899 11.5901 13.6405 12.3521 13.2353 12.6662L12.4181 13.3195C12.0056 13.6546 12.0599 14.2769 12.0599 14.2769C12.0599 14.2769 13.2703 18.8844 17.7927 20.0456Z" fill="white"/>
  </g>
  <defs>
    <clipPath id="clip0_858_913">
      <rect width="33" height="35" fill="white"/>
    </clipPath>
  </defs>
</svg>