<svg xmlns="http://www.w3.org/2000/svg" width="35" height="35" viewBox="0 0 35 35" fill="none">
  <path d="M0 35.0001L2.4602 26.0124C0.942081 23.3816 0.144375 20.3993 0.145833 17.3412C0.150208 7.78033 7.9304 0.00012207 17.4898 0.00012207C22.1287 0.0015804 26.4833 1.80846 29.7587 5.08679C33.0326 8.36512 34.8351 12.7226 34.8337 17.3572C34.8293 26.9195 27.0491 34.6997 17.4898 34.6997C14.5877 34.6982 11.7279 33.9705 9.19477 32.588L0 35.0001ZM9.6206 29.4482C12.0648 30.8993 14.3981 31.7685 17.4839 31.7699C25.4289 31.7699 31.901 25.3037 31.9053 17.3543C31.9083 9.38887 25.4668 2.93137 17.4956 2.92846C9.54477 2.92846 3.07708 9.39471 3.07416 17.3426C3.0727 20.5874 4.02353 23.017 5.6204 25.5589L4.16353 30.8789L9.6206 29.4482ZM26.2266 21.4799C26.1187 21.2991 25.8299 21.1912 25.3954 20.9739C24.9622 20.7566 22.8316 19.708 22.4335 19.5637C22.0368 19.4193 21.7481 19.3464 21.4579 19.781C21.1691 20.2141 20.3379 21.1912 20.0856 21.4799C19.8333 21.7687 19.5795 21.8051 19.1464 21.5878C18.7133 21.3705 17.3162 20.9141 15.661 19.4368C14.3733 18.2876 13.5027 16.8687 13.2504 16.4341C12.9981 16.001 13.2241 15.7662 13.44 15.5503C13.6354 15.3564 13.8731 15.0443 14.0904 14.7905C14.3106 14.5397 14.3821 14.3589 14.5279 14.0687C14.6723 13.7799 14.6008 13.5262 14.4914 13.3089C14.3821 13.093 13.5158 10.9595 13.1556 10.0918C12.8027 9.24741 12.4454 9.36116 12.18 9.34804L11.3487 9.33346C11.06 9.33346 10.5904 9.44137 10.1937 9.87596C9.79706 10.3105 8.67706 11.3576 8.67706 13.4912C8.67706 15.6247 10.2302 17.6853 10.446 17.9741C10.6633 18.2628 13.5012 22.6407 17.8485 24.5176C18.8825 24.9639 19.6904 25.2307 20.3189 25.4305C21.3572 25.7601 22.3022 25.7135 23.0489 25.6026C23.8816 25.4787 25.6127 24.5541 25.9743 23.542C26.336 22.5285 26.336 21.6607 26.2266 21.4799Z" fill="white"/>
</svg>