<svg xmlns="http://www.w3.org/2000/svg" width="60" height="32" viewBox="0 0 60 32" fill="none">
  <mask id="mask0_804_2255" style="mask-type:luminance" maskUnits="userSpaceOnUse" x="8" y="6" width="44" height="19">
    <path d="M52 6.83398H8V24.4075H52V6.83398Z" fill="white"/>
  </mask>
  <g mask="url(#mask0_804_2255)">
    <path d="M16.0446 9.09965C15.5289 9.69323 14.7039 10.1614 13.8789 10.0945C13.7758 9.29193 14.1797 8.43918 14.6524 7.91247C15.168 7.30216 16.0703 6.86742 16.8008 6.83398C16.8868 7.67002 16.5516 8.48934 16.0446 9.09965ZM16.7922 10.2534C15.5977 10.1865 14.575 10.9139 14.0078 10.9139C13.4321 10.9139 12.5641 10.2868 11.6188 10.3036C10.3899 10.3203 9.24691 10.9974 8.61957 12.076C7.33051 14.2329 8.28441 17.4266 9.53051 19.1823C10.1407 20.0517 10.8711 21.0048 11.8336 20.9714C12.7446 20.9379 13.1055 20.3945 14.2055 20.3945C15.3141 20.3945 15.6321 20.9714 16.5946 20.9547C17.5914 20.9379 18.2188 20.0852 18.8289 19.2157C19.525 18.2291 19.8086 17.2677 19.8258 17.2176C19.8086 17.2009 17.9008 16.4902 17.8836 14.35C17.8664 12.5608 19.3875 11.7081 19.4563 11.6579C18.5969 10.4205 17.2563 10.2868 16.7922 10.2534ZM23.693 7.82887V20.8627H25.7727V16.4066H28.6516C31.2813 16.4066 33.1289 14.651 33.1289 12.1093C33.1289 9.56782 31.3157 7.82887 28.7203 7.82887H23.693ZM25.7727 9.53438H28.1703C29.975 9.53438 31.0063 10.4707 31.0063 12.1177C31.0063 13.7648 29.975 14.7094 28.1618 14.7094H25.7727V9.53438ZM36.9274 20.963C38.2336 20.963 39.4453 20.3193 39.9953 19.2992H40.0383V20.8627H41.9633V14.3751C41.9633 12.4939 40.4164 11.2817 38.036 11.2817C35.8274 11.2817 34.1946 12.5107 34.1344 14.1994H36.0078C36.1625 13.3969 36.9274 12.8702 37.9758 12.8702C39.2477 12.8702 39.961 13.447 39.961 14.5088V15.2278L37.3657 15.3783C34.9508 15.5204 33.6446 16.4818 33.6446 18.1539C33.6446 19.8428 34.9938 20.963 36.9274 20.963ZM37.486 19.4163C36.3774 19.4163 35.6727 18.898 35.6727 18.1038C35.6727 17.2844 36.3516 16.8079 37.6493 16.7326L39.961 16.5905V17.3262C39.961 18.5468 38.8953 19.4163 37.486 19.4163ZM44.5328 24.4075C46.561 24.4075 47.5149 23.655 48.3485 21.3726L52.0008 11.4071H49.8868L47.4375 19.107H47.3946L44.9453 11.4071H42.7711L46.2946 20.8961L46.1055 21.473C45.7875 22.4511 45.2719 22.8273 44.3524 22.8273C44.1891 22.8273 43.8711 22.8106 43.7422 22.7939V24.3573C43.8625 24.3908 44.3782 24.4075 44.5328 24.4075Z" fill="white"/>
  </g>
</svg>