<svg xmlns="http://www.w3.org/2000/svg" width="73" height="32" viewBox="0 0 73 32" fill="none">
  <path d="M28.8636 22.6285C28.8636 22.8378 28.8636 23.0471 28.7955 23.2564C28.6591 23.5355 28.4545 23.8146 28.1818 23.8843C27.8409 23.9541 27.5682 23.9541 27.2273 23.8843C27.0909 23.8146 26.9545 23.7448 26.8182 23.675C26.6818 23.5355 26.6136 23.396 26.5455 23.2564C26.4773 23.0471 26.4773 22.8378 26.4773 22.6285V19.8378H25.3864V22.6983C25.3864 23.0471 25.4545 23.396 25.5909 23.7448C25.7273 24.0239 25.8636 24.2332 26.0682 24.4425C26.2727 24.6518 26.5455 24.7913 26.8182 24.8611C27.3636 25.0006 27.9773 25.0006 28.5227 24.8611C28.7955 24.7913 29.0682 24.6518 29.2727 24.4425C29.4773 24.2332 29.6818 24.0239 29.75 23.7448C29.8864 23.396 29.9545 23.0471 29.9545 22.6983V19.8378H28.8636V22.6285ZM33.8409 19.6983C33.5682 19.6983 33.2955 19.768 33.0227 19.8378C32.75 19.9773 32.5455 20.1169 32.4091 20.3959V19.8378H31.3182V24.7913H32.4091V22.0704C32.4091 21.8611 32.4091 21.7215 32.4773 21.5122C32.5455 21.3727 32.6136 21.2332 32.6818 21.0936C32.8182 20.9541 32.8864 20.8843 33.0227 20.8145C33.1591 20.7448 33.3636 20.7448 33.5 20.7448C33.6364 20.7448 33.7727 20.7448 33.9091 20.8145C34.0455 20.8145 34.1818 20.8843 34.3182 20.9541L34.5909 19.9076C34.4545 19.8378 34.3182 19.8378 34.1818 19.768C34.1136 19.6983 33.9773 19.6983 33.8409 19.6983ZM36.0909 21.8611C36.0909 21.7215 36.1591 21.5122 36.2273 21.3727C36.2955 21.2332 36.3636 21.0936 36.5 20.9541C36.6364 20.8146 36.7727 20.7448 36.9091 20.675C37.0455 20.6052 37.25 20.6052 37.3864 20.6052C37.7273 20.6052 38 20.675 38.2045 20.9541C38.4091 21.2332 38.5455 21.5122 38.6136 21.8611H36.0909ZM39.0909 20.3959C38.8864 20.1866 38.6136 19.9773 38.3409 19.8378C38.0682 19.6983 37.7273 19.6285 37.3864 19.6285C37.0455 19.6285 36.7045 19.6983 36.4318 19.8378C36.1591 19.9773 35.8864 20.1169 35.6818 20.3959C35.4773 20.6052 35.2727 20.8843 35.2045 21.2332C35.0682 21.582 35 21.9308 35 22.2797C35 22.6285 35.0682 22.9773 35.2045 23.3262C35.4091 23.9541 35.8864 24.4425 36.5 24.6518C36.8409 24.7913 37.1818 24.8611 37.5227 24.8611C37.8636 24.8611 38.2727 24.7913 38.6136 24.7215C38.9545 24.582 39.2955 24.4425 39.5682 24.1634L39.0227 23.396C38.8182 23.5355 38.6136 23.675 38.3409 23.8146C38.1364 23.8843 37.8636 23.9541 37.5909 23.9541C37.4545 23.9541 37.25 23.9541 37.1136 23.8843C36.9773 23.8146 36.8409 23.7448 36.7045 23.675C36.5682 23.5355 36.4318 23.396 36.3636 23.2564C36.2955 23.0471 36.2273 22.9076 36.1591 22.6983H39.8409V22.2797C39.8409 21.9308 39.7727 21.582 39.6364 21.2332C39.5 20.9541 39.2955 20.675 39.0909 20.3959ZM13.0455 21.1634C12.8409 21.0239 12.5682 20.8843 12.2955 20.8145C12.0227 20.7448 11.75 20.675 11.4773 20.6052L11 20.5355C10.7955 20.5355 10.5909 20.4657 10.3864 20.3959C10.25 20.3262 10.0455 20.3262 9.90909 20.1866C9.77273 20.1169 9.70455 20.0471 9.63636 19.9076C9.56818 19.768 9.5 19.6285 9.5 19.489C9.5 19.3494 9.56818 19.1401 9.63636 19.0704C9.70455 18.9308 9.84091 18.7913 9.97727 18.7215C10.1136 18.6518 10.3182 18.5122 10.4545 18.5122C10.6591 18.4425 10.8636 18.4425 11.1364 18.4425C11.4773 18.4425 11.8182 18.5122 12.1591 18.582C12.5 18.7215 12.8409 18.8611 13.1136 19.0704L13.6591 18.1634C13.3182 17.9541 12.9091 17.7448 12.5 17.6052C12.0227 17.4657 11.5455 17.3959 11.0682 17.3959C10.7273 17.3959 10.3182 17.4657 9.97727 17.5355C9.63636 17.6052 9.36364 17.7448 9.09091 17.9541C8.81818 18.1634 8.61364 18.3727 8.47727 18.6518C8.34091 18.9308 8.27273 19.2797 8.27273 19.6285C8.27273 19.9076 8.34091 20.2564 8.47727 20.4657C8.54545 20.7448 8.68182 20.9541 8.88636 21.0936C9.09091 21.2332 9.29545 21.3727 9.56818 21.4425C9.84091 21.582 10.1136 21.6518 10.3864 21.6518L10.9318 21.7215C11.3409 21.7913 11.75 21.8611 12.1591 22.0704C12.4318 22.2099 12.5682 22.4192 12.5682 22.6983C12.5682 22.8378 12.5 23.0471 12.4318 23.1866C12.3636 23.3262 12.2273 23.4657 12.0909 23.5355C11.9545 23.6053 11.75 23.675 11.5455 23.7448C11.3409 23.8146 11.1364 23.8146 10.8636 23.8146C10.6591 23.8146 10.4545 23.8146 10.25 23.7448C9.84091 23.675 9.43182 23.5355 9.09091 23.3262C8.95455 23.2564 8.75 23.1169 8.68182 22.9773L8 23.9541C8.20455 24.0936 8.40909 24.2332 8.61364 24.3727C8.81818 24.5122 9.09091 24.582 9.29545 24.6518C9.56818 24.7215 9.84091 24.7913 10.1136 24.8611C10.3864 24.9308 10.5909 24.9308 10.8636 24.9308C11.2045 24.9308 11.6136 24.8611 11.9545 24.7913C12.2955 24.7215 12.5682 24.582 12.8409 24.3727C13.1136 24.1634 13.3182 23.9541 13.4545 23.675C13.5909 23.396 13.6591 23.0471 13.6591 22.6983C13.6591 22.4192 13.5909 22.1401 13.4545 21.8611C13.3864 21.5122 13.25 21.3727 13.0455 21.1634ZM15.6364 21.8611C15.6364 21.7215 15.7045 21.5122 15.7727 21.3727C15.8409 21.2332 15.9091 21.0936 16.0455 20.9541C16.1818 20.8146 16.3182 20.7448 16.4545 20.675C16.5909 20.6052 16.7955 20.6052 16.9318 20.6052C17.2727 20.6052 17.5455 20.7448 17.75 20.9541C17.9545 21.2332 18.0909 21.5122 18.1591 21.8611H15.6364ZM18.6364 20.3959C18.4318 20.1866 18.1591 19.9773 17.8864 19.8378C17.6136 19.6983 17.2727 19.6285 16.9318 19.6285C16.5909 19.6285 16.25 19.6983 15.9773 19.8378C15.7045 19.9773 15.4318 20.1169 15.2273 20.3959C15.0227 20.6052 14.8182 20.8843 14.75 21.2332C14.6136 21.582 14.5455 21.9308 14.5455 22.2797C14.5455 22.6285 14.6136 22.9773 14.75 23.3262C14.9545 23.9541 15.4318 24.4425 16.0455 24.6518C16.3864 24.7913 16.7273 24.8611 17.0682 24.8611C17.4091 24.8611 17.8182 24.7913 18.1591 24.7215C18.5 24.582 18.8409 24.4425 19.1136 24.1634L18.5682 23.396C18.3636 23.5355 18.1591 23.675 17.8864 23.8146C17.6818 23.8843 17.4091 23.9541 17.1364 23.9541C17 23.9541 16.7955 23.9541 16.6591 23.8843C16.5227 23.8146 16.3864 23.7448 16.25 23.675C16.1136 23.5355 15.9773 23.396 15.9091 23.2564C15.8409 23.0471 15.7727 22.9076 15.7045 22.6983H19.3182V22.2797C19.3182 21.9308 19.25 21.582 19.1136 21.2332C18.9773 20.9541 18.8409 20.675 18.6364 20.3959ZM23.2727 23.7448C22.8636 23.9541 22.4545 23.9541 22.0455 23.8146C21.8409 23.7448 21.7045 23.6053 21.5682 23.4657C21.4318 23.3262 21.3636 23.1169 21.2955 22.9773C21.1591 22.5587 21.1591 22.0704 21.2955 21.6518C21.3636 21.4425 21.5 21.3029 21.5682 21.1634C21.7045 21.0239 21.8409 20.8843 22.0455 20.8145C22.25 20.7448 22.3864 20.675 22.5909 20.675C22.7955 20.675 23 20.7448 23.2045 20.8145C23.4091 20.8843 23.6136 21.0239 23.75 21.2332L24.4318 20.4657C24.2273 20.1866 23.9545 19.9773 23.6818 19.9076C23.3409 19.768 23 19.6983 22.6591 19.6983C22.3182 19.6983 21.9091 19.768 21.5682 19.9076C20.9545 20.1866 20.4773 20.675 20.2727 21.3029C20 22.0006 20 22.6983 20.2727 23.396C20.4773 24.0239 21.0227 24.5122 21.6364 24.7913C21.9773 24.9308 22.3182 25.0006 22.7273 25.0006C23.0682 25.0006 23.4091 24.9308 23.75 24.7913C24.0909 24.6518 24.3636 24.4425 24.5682 24.1634L23.8864 23.396C23.6136 23.5355 23.4773 23.675 23.2727 23.7448ZM57.9773 22.9076C57.9091 23.1169 57.7727 23.2564 57.7045 23.396C57.5682 23.5355 57.4318 23.675 57.2273 23.7448C56.8182 23.8843 56.4091 23.8843 56 23.7448C55.6591 23.6053 55.3864 23.2564 55.25 22.9076C55.1136 22.489 55.1136 22.0704 55.25 21.6518C55.3864 21.3029 55.6591 20.9541 56 20.8145C56.2045 20.7448 56.4091 20.675 56.6136 20.675C56.8182 20.675 57.0227 20.7448 57.2273 20.8145C57.4318 20.8843 57.5682 21.0239 57.7045 21.1634C57.8409 21.3029 57.9091 21.5122 57.9773 21.6518C58.1136 22.0704 58.1136 22.5587 57.9773 22.9076ZM58.0455 20.3959C57.7045 19.9076 57.0909 19.6285 56.4773 19.6983C55.4545 19.6983 54.5682 20.3262 54.2273 21.2332C53.9545 21.9308 53.9545 22.6285 54.2273 23.3262C54.3636 23.6053 54.5 23.9541 54.7727 24.1634C55.25 24.6518 55.8636 24.9308 56.4773 24.9308C56.8182 24.9308 57.0909 24.8611 57.3636 24.7215C57.6364 24.582 57.8409 24.4425 57.9773 24.1634V24.7913H59.1364V17.3262H58.0455V20.3959ZM61.3182 21.8611C61.3182 21.7215 61.3864 21.5122 61.4545 21.3727C61.5227 21.2332 61.5909 21.0936 61.7273 20.9541C61.8636 20.8146 62 20.7448 62.1364 20.675C62.2727 20.6052 62.4773 20.6052 62.6136 20.6052C62.9545 20.6052 63.2273 20.675 63.4318 20.8843C63.6364 21.1634 63.7727 21.4425 63.8409 21.7913H61.3182V21.8611ZM64.3182 20.3959C64.1136 20.1866 63.8409 19.9773 63.5682 19.8378C63.2955 19.6983 62.9545 19.6285 62.6136 19.6285C62.2727 19.6285 62 19.6983 61.6591 19.8378C61.3864 19.9773 61.1136 20.1169 60.9091 20.3959C60.7045 20.6052 60.5 20.8843 60.4318 21.2332C60.2955 21.582 60.2273 21.9308 60.2273 22.2797C60.2273 22.6285 60.2955 22.9773 60.4318 23.3262C60.5682 23.6053 60.7045 23.8843 60.9773 24.1634C61.1818 24.3727 61.4545 24.582 61.7273 24.7215C62.0682 24.8611 62.4091 24.9308 62.75 24.9308C63.0909 24.9308 63.5 24.8611 63.8409 24.7913C64.1818 24.6518 64.5227 24.5122 64.7955 24.2332L64.25 23.4657C64.0455 23.6053 63.8409 23.7448 63.5682 23.8843C63.3636 23.9541 63.0909 24.0239 62.8182 24.0239C62.6818 24.0239 62.4773 24.0239 62.3409 23.9541C62.2045 23.8843 62.0682 23.8146 61.9318 23.7448C61.7955 23.6053 61.6591 23.4657 61.5909 23.3262C61.5227 23.1169 61.4545 22.9773 61.3864 22.768H65V22.3494C65 22.0006 64.9318 21.6518 64.7955 21.3029C64.7273 20.8843 64.5227 20.6052 64.3182 20.3959ZM52.0455 22.9076C51.9091 23.2564 51.5682 23.6053 51.2273 23.7448C50.8182 23.8843 50.4091 23.8843 50 23.7448C49.6591 23.6053 49.3182 23.3262 49.1818 22.9076C49.0455 22.489 49.0455 22.0006 49.1818 21.582C49.25 21.3727 49.3864 21.2332 49.5227 21.0936C49.6591 20.9541 49.7955 20.8146 50 20.7448C50.2045 20.675 50.4091 20.6052 50.6136 20.6052C50.8182 20.6052 51.0227 20.675 51.2273 20.7448C51.4318 20.8146 51.5682 20.9541 51.7045 21.0936C51.8409 21.2332 51.9773 21.4425 52.0455 21.582C52.25 22.0704 52.25 22.489 52.0455 22.9076ZM52.5227 20.3959C52.25 20.1866 51.9773 19.9773 51.7045 19.8378C51.3636 19.6983 51.0227 19.6285 50.6818 19.6285C50.3409 19.6285 49.9318 19.6983 49.5909 19.8378C49.25 19.9773 48.9773 20.1169 48.7727 20.3959C48.5682 20.6052 48.3636 20.8843 48.2273 21.2332C47.9545 21.9308 47.9545 22.6285 48.2273 23.3262C48.3636 23.6053 48.5682 23.8843 48.7727 24.1634C49.0455 24.3727 49.3182 24.582 49.5909 24.7215C50.2727 25.0006 51.0227 25.0006 51.7045 24.7215C52.0455 24.582 52.3182 24.4425 52.5227 24.1634C52.7273 23.9541 52.9318 23.675 53.0682 23.3262C53.3409 22.6285 53.3409 21.9308 53.0682 21.2332C52.9318 20.9541 52.7955 20.675 52.5227 20.3959ZM42.5 19.2099C42.7045 19.0006 42.9773 18.7913 43.3182 18.6518C43.6591 18.5122 44 18.4425 44.3409 18.4425C44.75 18.4425 45.1591 18.5122 45.5 18.7215C45.8409 18.9308 46.1136 19.1401 46.3182 19.489L47.2727 18.8611C47.1364 18.6518 46.9318 18.4425 46.7273 18.2332C46.5227 18.0238 46.3182 17.8843 46.0455 17.7448C45.7727 17.6052 45.5 17.5355 45.2273 17.4657C44.9545 17.3959 44.6136 17.3959 44.2727 17.3959C43.7273 17.3959 43.25 17.4657 42.7727 17.675C41.8864 18.0238 41.1364 18.7215 40.7955 19.6983C40.4545 20.675 40.4545 21.7215 40.7955 22.6983C41.1364 23.6053 41.8864 24.3029 42.7727 24.7215C43.5227 25.0006 44.4091 25.0704 45.1591 24.9308C45.4318 24.8611 45.7045 24.7913 45.9773 24.6518C46.25 24.5122 46.4545 24.3727 46.6591 24.1634C46.8636 23.9541 47.0682 23.7448 47.2045 23.5355L46.25 22.8378C45.7727 23.5355 45.0227 23.8843 44.2727 23.8843C43.9318 23.8843 43.5909 23.8146 43.25 23.675C42.9773 23.5355 42.7045 23.396 42.4318 23.1169C42.2273 22.9076 42.0227 22.5587 41.8864 22.2797C41.6136 21.582 41.6136 20.8145 41.8864 20.1169C42.0909 19.768 42.2955 19.489 42.5 19.2099Z" fill="white"/>
  <path fill-rule="evenodd" clip-rule="evenodd" d="M38.3404 9.99986C38.1358 9.79056 37.8631 9.58126 37.5904 9.44173C37.3176 9.30219 36.9767 9.23242 36.6358 9.23242C36.2949 9.23242 35.954 9.30219 35.6131 9.44173C35.2722 9.58126 34.9994 9.79056 34.7949 9.99986C34.5904 10.279 34.3858 10.558 34.2494 10.8371C34.1131 11.186 34.0449 11.5348 34.0449 11.9534C34.0449 12.3022 34.1131 12.7208 34.2494 13.0697C34.3858 13.4185 34.5222 13.6976 34.7949 13.9069C34.9994 14.1162 35.3404 14.3255 35.6131 14.465C35.954 14.6046 36.2949 14.6743 36.704 14.6743C37.0449 14.6743 37.454 14.6046 37.7949 14.5348C38.1358 14.3953 38.4767 14.2557 38.7494 13.9767L38.204 13.2092C38.1017 13.279 37.9824 13.3487 37.8631 13.4185C37.7438 13.4883 37.6244 13.5581 37.5222 13.6278C37.2494 13.6976 36.9767 13.7674 36.7722 13.7674C36.5676 13.7674 36.4313 13.7674 36.2267 13.6976C36.1864 13.6666 36.1446 13.6357 36.1022 13.6043C35.8577 13.4234 35.5929 13.2274 35.4767 12.9301C35.3404 12.7906 35.2722 12.5813 35.2722 12.372H39.0222V11.9534C39.0222 11.6046 38.954 11.186 38.8176 10.8371C38.7494 10.558 38.6131 10.2092 38.3404 9.99986ZM35.2722 11.5348C35.2722 11.3255 35.3404 11.186 35.4085 11.0464C35.4767 10.9069 35.5449 10.7673 35.6813 10.6278C35.8176 10.4883 35.954 10.4185 36.0904 10.3487C36.2267 10.279 36.4313 10.279 36.6358 10.279C36.9767 10.279 37.2494 10.4185 37.5222 10.6278C37.7267 10.9069 37.9313 11.186 37.9313 11.5348H35.2722Z" fill="white"/>
  <path d="M32.613 13.4886C32.4766 13.5584 32.2721 13.5584 32.0675 13.5584C31.9312 13.5584 31.863 13.5584 31.7266 13.4886C31.6925 13.4537 31.6414 13.4363 31.5903 13.4188C31.5391 13.4014 31.488 13.3839 31.4539 13.349C31.4198 13.3142 31.3857 13.2618 31.3516 13.2095C31.3175 13.1572 31.2834 13.1049 31.2493 13.07C31.1812 12.9304 31.1812 12.7909 31.1812 12.6514V10.4188H33.2266V9.37229H31.2493V7.8374H30.1584V9.37229H29.1357V10.4188H30.1584V12.6514C30.0903 13.2095 30.2948 13.7677 30.6357 14.1863C30.9766 14.5351 31.4539 14.6746 31.9993 14.6746C32.2721 14.6746 32.613 14.6049 32.8857 14.5351C33.1584 14.4653 33.363 14.3258 33.5675 14.1863L33.0903 13.2793C32.9539 13.349 32.8175 13.4188 32.613 13.4886Z" fill="white"/>
  <path d="M45.5681 10.7673C45.7045 10.6278 45.8409 10.4883 46.0454 10.4185C46.2499 10.3487 46.4545 10.279 46.659 10.279C46.8636 10.279 47.1363 10.3487 47.3409 10.4185C47.5454 10.4883 47.7499 10.6278 47.8863 10.8371L48.5681 10.0697C48.3636 9.79056 48.0909 9.58126 47.7499 9.44173C47.409 9.30219 47.0681 9.23242 46.659 9.23242C46.3181 9.23242 45.909 9.30219 45.5681 9.44173C44.9545 9.7208 44.409 10.2092 44.2045 10.8371C43.9318 11.5348 43.9318 12.3022 44.2045 12.9999C44.4772 13.6278 44.9545 14.186 45.5681 14.3953C45.909 14.5348 46.3181 14.6046 46.659 14.6046C46.9999 14.6046 47.409 14.5348 47.7499 14.3953C48.0909 14.2557 48.3636 14.0464 48.5681 13.7674L47.8863 12.9999C47.7499 13.1394 47.5454 13.279 47.3409 13.4185C47.1363 13.4883 46.8636 13.5581 46.659 13.5581C46.4545 13.5581 46.2499 13.4883 46.0454 13.4185C45.8409 13.3487 45.7045 13.2092 45.5681 13.0697C45.4318 12.9301 45.2954 12.7208 45.2272 12.5813C45.0909 12.1627 45.0909 11.6743 45.2272 11.2557C45.2638 11.1996 45.2954 11.1486 45.3248 11.1012C45.405 10.9716 45.4683 10.8695 45.5681 10.7673Z" fill="white"/>
  <path d="M14.7496 7L12.5678 12.3721L10.4542 7H8.61328V14.5349H9.84055V8.39535L12.0224 13.7675H13.3178L15.4996 8.32558V14.5349H16.7269V7H14.7496Z" fill="white"/>
  <path fill-rule="evenodd" clip-rule="evenodd" d="M21.7724 9.99986C21.5678 9.79056 21.3633 9.58126 21.0906 9.44173C20.8178 9.30219 20.4769 9.23242 20.136 9.23242C19.1133 9.23242 18.1587 9.86033 17.8178 10.8371C17.5451 11.5348 17.5451 12.3022 17.8178 12.9999C17.9542 13.3487 18.0906 13.6278 18.3633 13.8371C18.8406 14.3255 19.5224 14.6046 20.136 14.6046C20.4769 14.6046 20.7496 14.5348 21.0906 14.3953C21.3633 14.2557 21.5678 14.0464 21.7724 13.8371V14.465H22.8633V9.37196H21.7724V9.99986ZM21.7724 12.5813C21.636 12.9999 21.2951 13.279 20.9542 13.4883C20.5451 13.6278 20.0678 13.6278 19.6587 13.4883C19.4542 13.4185 19.3178 13.279 19.1815 13.1394C19.0451 12.9999 18.9769 12.7906 18.9087 12.5813C18.7724 12.1627 18.7724 11.7441 18.9087 11.3255C19.0451 10.9069 19.3178 10.6278 19.6587 10.4185C19.8633 10.3487 20.0678 10.279 20.2724 10.279C20.886 10.279 21.4996 10.6278 21.7042 11.2557C21.9087 11.7441 21.9087 12.1627 21.7724 12.5813Z" fill="white"/>
  <path d="M28.1135 11.9534C27.7044 11.6743 27.2953 11.5348 26.818 11.465C26.7712 11.459 26.7076 11.4539 26.6332 11.4478C26.1966 11.4122 25.3862 11.3462 25.3862 10.9069C25.3862 9.93956 27.4406 10.3579 27.9089 10.8371L28.4544 9.79063C27.2955 8.90122 24.2271 8.87919 24.2271 10.9069C24.2271 11.3255 24.3635 11.6743 24.6362 11.8836C24.9771 12.1627 25.4544 12.372 25.9317 12.372L26.4771 12.4418C26.6817 12.4418 26.9544 12.5115 27.1589 12.6511C27.2953 12.7208 27.3635 12.8604 27.3635 12.9999C27.3635 13.2092 27.2271 13.3487 27.0908 13.4883C26.4186 13.8322 25.1213 13.6358 24.568 13.0697L24.0908 13.9767C24.1518 14.0183 24.2068 14.0599 24.2593 14.0997C24.3828 14.1933 24.4927 14.2765 24.6362 14.3255C24.9771 14.465 25.3862 14.6046 25.7953 14.6046H26.2726C26.6135 14.6046 26.9544 14.5348 27.2271 14.465C27.4294 14.4133 27.5942 14.3232 27.777 14.2231C27.8408 14.1883 27.9067 14.1522 27.9771 14.1162C28.1817 13.9767 28.318 13.8371 28.4544 13.6278C28.5908 13.4185 28.5908 13.2092 28.5908 12.9301C28.5908 12.5813 28.3862 12.1627 28.1135 11.9534Z" fill="white"/>
  <path d="M41.4083 9.93015V9.37201H40.3174V14.5348H41.4083V11.6743C41.4083 11.465 41.4083 11.2557 41.4765 11.1162C41.8699 10.3111 42.7071 10.176 43.4538 10.558L43.7265 9.44178C43.0225 9.0816 41.7983 9.132 41.4083 9.93015Z" fill="white"/>
  <path fill-rule="evenodd" clip-rule="evenodd" d="M53.3408 9.99986C53.1362 9.79056 52.9317 9.58126 52.6589 9.44173C52.3862 9.30219 52.0453 9.23242 51.7044 9.23242C50.6817 9.23242 49.7271 9.86033 49.3862 10.8371C49.1135 11.5348 49.1135 12.3022 49.3862 12.9999C49.5226 13.3487 49.7271 13.6278 49.9317 13.8371C50.4089 14.3255 51.0907 14.6046 51.7044 14.6046C52.0453 14.6046 52.318 14.5348 52.6589 14.3953C52.9317 14.2557 53.1362 14.0464 53.3408 13.8371V14.465H54.4317V9.37196H53.3408V9.99986ZM53.3408 12.5813C53.2044 12.9999 52.9317 13.279 52.5226 13.4185C52.1135 13.5581 51.6362 13.5581 51.2271 13.4185C51.0226 13.3487 50.8862 13.2092 50.7498 13.0697C50.6135 12.9301 50.5453 12.7208 50.4771 12.5115C50.3407 12.0929 50.3407 11.6743 50.4771 11.2557C50.6135 10.8371 50.8862 10.558 51.2271 10.3487C51.4317 10.279 51.6362 10.2092 51.8408 10.2092C52.4544 10.2092 53.068 10.558 53.2726 11.186C53.4771 11.7441 53.4771 12.1627 53.3408 12.5813Z" fill="white"/>
  <path d="M58.3176 9.21484C58.0448 9.21484 57.7039 9.28461 57.4312 9.35437C57.1585 9.49391 56.9539 9.63344 56.8176 9.91252V9.35437H55.7266V14.5172H56.8176V11.6567C56.8176 11.4474 56.8176 11.2381 56.8857 11.0985C56.9539 10.959 57.0221 10.8195 57.1585 10.6799C57.2948 10.5404 57.4312 10.4706 57.5676 10.4009C57.7039 10.3311 57.9085 10.3311 58.0448 10.3311C58.1812 10.3311 58.3176 10.3311 58.4539 10.4009C58.5903 10.4009 58.7266 10.4706 58.863 10.5404L59.1357 9.42414C59.0676 9.38926 58.9994 9.37182 58.9312 9.35437C58.863 9.33693 58.7948 9.31949 58.7266 9.28461C58.5903 9.21484 58.4539 9.21484 58.3176 9.21484Z" fill="white"/>
  <path fill-rule="evenodd" clip-rule="evenodd" d="M62.2719 9.3721C62.8856 9.30233 63.4992 9.5814 63.8401 10.0698V7H64.931V14.4651H63.7719V13.8372C63.6356 14.1163 63.431 14.2558 63.1583 14.3954C62.8856 14.5349 62.6128 14.6047 62.2719 14.6047C61.6583 14.6047 61.0446 14.3256 60.5674 13.8372C60.3328 13.6572 60.1992 13.3741 60.0796 13.1208C60.0601 13.0796 60.041 13.0391 60.0219 13C59.7492 12.3023 59.7492 11.6047 60.0219 10.907C60.3628 10 61.2492 9.3721 62.2719 9.3721ZM63.5967 12.9103C63.6595 12.8167 63.7291 12.7128 63.7719 12.5814C63.9083 12.2326 63.9083 11.7442 63.7719 11.3256C63.7558 11.2926 63.7397 11.2558 63.7227 11.2169C63.6677 11.0911 63.6034 10.9438 63.4992 10.8372C63.3628 10.6977 63.2265 10.5581 63.0219 10.4884C62.8174 10.4186 62.6128 10.3488 62.4083 10.3488C62.2037 10.3488 61.9992 10.4186 61.7946 10.4884C61.4537 10.6279 61.181 10.9768 61.0446 11.3256C60.9083 11.7442 60.9083 12.1628 61.0446 12.5814C61.181 12.9302 61.4537 13.2791 61.7946 13.4186C62.2037 13.5582 62.6128 13.5582 63.0219 13.4186C63.2265 13.3488 63.3628 13.2093 63.4992 13.0698C63.5246 13.0178 63.5594 12.9659 63.5967 12.9103Z" fill="white"/>
</svg>