<svg xmlns="http://www.w3.org/2000/svg" width="30" height="30" viewBox="0 0 30 30" fill="none">
  <path d="M3.75 15C3.75 9.6967 3.75 8.29505 5.39752 6.64752C7.04505 5 9.6967 5 15 5C20.3033 5 22.955 5 24.6025 6.64752C26.25 8.29505 26.25 9.6967 26.25 15C26.25 20.3033 26.25 22.955 24.6025 24.6025C22.955 26.25 20.3033 26.25 15 26.25C9.6967 26.25 7.04505 26.25 5.39752 24.6025C3.75 22.955 3.75 20.3033 3.75 15Z" stroke="#35B8FF" stroke-width="1.5" stroke-linecap="round" stroke-linejoin="round"/>
  <path d="M20.625 6.25V3.75" stroke="#35B8FF" stroke-width="1.5" stroke-linecap="round" stroke-linejoin="round"/>
  <path d="M9.375 6.25V3.75" stroke="#35B8FF" stroke-width="1.5" stroke-linecap="round" stroke-linejoin="round"/>
  <path d="M4.0625 10H25.9375" stroke="#35B8FF" stroke-width="1.5" stroke-linecap="round" stroke-linejoin="round"/>
  <path d="M12.8223 17.8023L14.1147 19.2794C14.2332 19.4149 14.447 19.4049 14.5523 19.259L17.1769 15.625" stroke="#35B8FF" stroke-width="1.5" stroke-linecap="round" stroke-linejoin="round"/>
</svg>