<svg xmlns="http://www.w3.org/2000/svg" width="30" height="30" viewBox="0 0 30 30" fill="none">
  <path d="M3.75 3.75C4.78866 4.13084 6.20973 4.42757 6.84935 5.40373C7.29552 6.08463 7.29552 6.98907 7.29552 8.79795V12.2C7.29552 15.877 7.37131 17.0904 8.40977 18.2327C9.44823 19.375 11.1196 19.375 14.4623 19.375H20.8183C24.151 19.375 24.8739 18.6231 25.514 15.3843C25.7932 13.9713 26.076 12.5762 26.2185 11.168C26.4884 8.49944 25.0032 7.65 22.6365 7.65H7.29552" stroke="white" stroke-width="1.5" stroke-linecap="round" stroke-linejoin="round"/>
  <path d="M20.625 26.25C21.6605 26.25 22.5 25.4105 22.5 24.375C22.5 23.3395 21.6605 22.5 20.625 22.5C19.5895 22.5 18.75 23.3395 18.75 24.375C18.75 25.4105 19.5895 26.25 20.625 26.25Z" stroke="white" stroke-width="1.5" stroke-linecap="round" stroke-linejoin="round"/>
  <path d="M10.625 26.25C11.6605 26.25 12.5 25.4105 12.5 24.375C12.5 23.3395 11.6605 22.5 10.625 22.5C9.58947 22.5 8.75 23.3395 8.75 24.375C8.75 25.4105 9.58947 26.25 10.625 26.25Z" stroke="white" stroke-width="1.5" stroke-linecap="round" stroke-linejoin="round"/>
</svg>