<svg xmlns="http://www.w3.org/2000/svg" width="30" height="30" viewBox="0 0 30 30" fill="none">
  <path d="M11.8474 3.75H9.0625C7.5092 3.75 6.25 5.0092 6.25 6.5625V23.4375C6.25 24.9908 7.5092 26.25 9.0625 26.25H20.3125C21.8658 26.25 23.125 24.9908 23.125 23.4375V15M11.8474 3.75C13.4007 3.75 14.6875 5.0092 14.6875 6.5625V9.375C14.6875 10.9283 15.9467 12.1875 17.5 12.1875H20.3125C21.8658 12.1875 23.125 13.4467 23.125 15M11.8474 3.75C16.4598 3.75 23.125 10.4496 23.125 15" stroke="#35B8FF" stroke-width="1.5" stroke-linecap="round" stroke-linejoin="round"/>
  <path d="M11.25 20.625H18.75" stroke="#35B8FF" stroke-width="1.5" stroke-linecap="round" stroke-linejoin="round"/>
  <path d="M11.25 16.875H16.25" stroke="#35B8FF" stroke-width="1.5" stroke-linecap="round" stroke-linejoin="round"/>
</svg>