<svg xmlns="http://www.w3.org/2000/svg" width="30" height="30" viewBox="0 0 30 30" fill="none">
  <path d="M3.75 8.4375C3.75 6.22779 3.75 5.12294 4.43647 4.43647C5.12294 3.75 6.22779 3.75 8.4375 3.75C10.6472 3.75 11.7521 3.75 12.4385 4.43647C13.125 5.12294 13.125 6.22779 13.125 8.4375C13.125 10.6472 13.125 11.7521 12.4385 12.4385C11.7521 13.125 10.6472 13.125 8.4375 13.125C6.22779 13.125 5.12294 13.125 4.43647 12.4385C3.75 11.7521 3.75 10.6472 3.75 8.4375Z" stroke="#35B8FF" stroke-width="1.5" stroke-linecap="round" stroke-linejoin="round"/>
  <path d="M3.75 21.5713C3.75 19.3616 3.75 18.2567 4.43647 17.5703C5.12294 16.8838 6.22779 16.8838 8.4375 16.8838C10.6472 16.8838 11.7521 16.8838 12.4385 17.5703C13.125 18.2567 13.125 19.3616 13.125 21.5713C13.125 23.781 13.125 24.8859 12.4385 25.5723C11.7521 26.2588 10.6472 26.2588 8.4375 26.2588C6.22779 26.2588 5.12294 26.2588 4.43647 25.5723C3.75 24.8859 3.75 23.781 3.75 21.5713Z" stroke="#35B8FF" stroke-width="1.5" stroke-linecap="round" stroke-linejoin="round"/>
  <path d="M16.875 8.4375C16.875 6.22779 16.875 5.12294 17.5615 4.43647C18.2479 3.75 19.3528 3.75 21.5625 3.75C23.7722 3.75 24.8771 3.75 25.5635 4.43647C26.25 5.12294 26.25 6.22779 26.25 8.4375C26.25 10.6472 26.25 11.7521 25.5635 12.4385C24.8771 13.125 23.7722 13.125 21.5625 13.125C19.3528 13.125 18.2479 13.125 17.5615 12.4385C16.875 11.7521 16.875 10.6472 16.875 8.4375Z" stroke="#35B8FF" stroke-width="1.5" stroke-linecap="round" stroke-linejoin="round"/>
  <path d="M16.875 21.5713C16.875 19.3616 16.875 18.2567 17.5615 17.5703C18.2479 16.8838 19.3528 16.8838 21.5625 16.8838C23.7722 16.8838 24.8771 16.8838 25.5635 17.5703C26.25 18.2567 26.25 19.3616 26.25 21.5713C26.25 23.781 26.25 24.8859 25.5635 25.5723C24.8771 26.2588 23.7722 26.2588 21.5625 26.2588C19.3528 26.2588 18.2479 26.2588 17.5615 25.5723C16.875 24.8859 16.875 23.781 16.875 21.5713Z" stroke="#35B8FF" stroke-width="1.5" stroke-linecap="round" stroke-linejoin="round"/>
</svg>