<svg xmlns="http://www.w3.org/2000/svg" width="30" height="30" viewBox="0 0 30 30" fill="none">
  <path d="M12.3169 12.3169L11.875 11.875" stroke="#35B8FF" stroke-width="1.5" stroke-linecap="round" stroke-linejoin="round"/>
  <path d="M18.1294 18.1294L17.6875 17.6875" stroke="#35B8FF" stroke-width="1.5" stroke-linecap="round" stroke-linejoin="round"/>
  <path d="M11.875 18.125L18.125 11.875" stroke="#35B8FF" stroke-width="1.5" stroke-linecap="round" stroke-linejoin="round"/>
  <path d="M3.75 15C3.75 9.6967 3.75 7.04505 5.39752 5.39752C7.04505 3.75 9.6967 3.75 15 3.75C20.3033 3.75 22.955 3.75 24.6025 5.39752C26.25 7.04505 26.25 9.6967 26.25 15C26.25 20.3033 26.25 22.955 24.6025 24.6025C22.955 26.25 20.3033 26.25 15 26.25C9.6967 26.25 7.04505 26.25 5.39752 24.6025C3.75 22.955 3.75 20.3033 3.75 15Z" stroke="#35B8FF" stroke-width="1.5" stroke-linecap="round" stroke-linejoin="round"/>
</svg>