<svg xmlns="http://www.w3.org/2000/svg" width="30" height="30" viewBox="0 0 30 30" fill="none">
  <path d="M11.5086 20.5682C11.5086 22.3255 10.1192 23.75 8.40517 23.75C6.69119 23.75 5.30172 22.3255 5.30172 20.5682M11.5086 20.5682C11.5086 18.8109 10.1192 17.3864 8.40517 17.3864C6.69119 17.3864 5.30172 18.8109 5.30172 20.5682M11.5086 20.5682H18.4914M5.30172 20.5682H3.75V7.5C3.75 6.80964 4.30964 6.25 5 6.25H17.2414C17.9317 6.25 18.4914 6.80964 18.4914 7.5V10.2273M25.4741 20.5682C25.4741 22.3255 24.0847 23.75 22.3707 23.75C20.6567 23.75 19.2672 22.3255 19.2672 20.5682M25.4741 20.5682C25.4741 18.8109 24.0847 17.3864 22.3707 17.3864C20.6567 17.3864 19.2672 18.8109 19.2672 20.5682M25.4741 20.5682H26.25V14.2045L23.1065 10.9817C22.636 10.4993 21.9907 10.2273 21.3168 10.2273H18.4914M19.2672 20.5682H18.4914M18.4914 20.5682V10.2273" stroke="white" stroke-width="1.5" stroke-linecap="round" stroke-linejoin="round"/>
</svg>